# xmcd
#
# Track frame offsets:
#	150
#	15052
#	49820
#	71214
#	89164
#	115386
#	133560
#	147398
#	170881
#	207846
#
# Disc length: 3066 seconds
#
# Revision: 1
# Processed by: cddbd v1.5.1PL0 Copyright (c) Steve Scherf et al.
# Submitted via: audiograbber 1.83.01
#
DISCID=960bf80a
DTITLE=Coco Robicheaux - Yeah, U Rite!
DYEAR=2005
DGENRE=
TTITLE0=Yeah, U Rite!
TTITLE1=Ten Commandments of the Blues
TTITLE2=Work of the Devil
TTITLE3=Hot Sauce Boogie
TTITLE4=Street Connexxion
TTITLE5=The Moment
TTITLE6=I´m a Musician
TTITLE7=Back Around Blues
TTITLE8=Sittin´on Death Road
TTITLE9=If You Still Want Me
EXTD=
EXTT0=
EXTT1=
EXTT2=
EXTT3=
EXTT4=
EXTT5=
EXTT6=
EXTT7=
EXTT8=
EXTT9=
PLAYORDER=
